<?xml version="1.0" encoding="UTF-8"?>
<svg width="17px" height="15px" viewBox="0 0 17 15" version="1.1" xmlns="http://www.w3.org/2000/svg" xmlns:xlink="http://www.w3.org/1999/xlink">
    <title>Element/Icon/Check</title>
    <g id="Tablet" stroke="none" stroke-width="1" fill="none" fill-rule="evenodd">
        <g id="1-–-Home" transform="translate(-437.000000, -355.000000)" fill="#8C54FF">
            <g id="Component/Card-Metric" transform="translate(397.000000, 306.000000)">
                <g id="Icon-Circle" transform="translate(24.000000, 32.000000)">
                    <g id="Element/Icon/Check" transform="translate(15.000000, 15.000000)">
                        <path d="M4.5761437,15.1323149 C5.0761982,16.2365268 6.3354171,16.1801996 6.73713873,15.0308696 L8.65009842,9.55787104 L10.6935111,15.6879099 C11.1126844,16.9453889 12.4819149,16.8422384 12.7012467,15.5262471 L14.3883283,5.40375753 L16.2376051,9.10231105 C16.442911,9.51292291 16.9422111,9.67935624 17.3528229,9.47405031 C17.7634348,9.26874438 17.9298681,8.76944436 17.7245622,8.3588325 L15.1050633,3.1198349 C14.5427227,1.99515369 13.2401574,2.18038152 13.0317012,3.43111861 L11.4745621,12.7739534 L9.7195375,7.50905063 C9.32078185,6.31282254 8.01928132,6.32413611 7.60789966,7.50110352 L5.5768158,13.3120567 L4.78148905,11.5558296 C4.31820326,10.5328098 3.11995625,10.4563733 2.54537451,11.4330587 L1.30241697,13.5458623 C1.06963684,13.9415466 1.20169672,14.4510176 1.59738097,14.6837978 C1.99306523,14.9165779 2.50253628,14.784518 2.73531642,14.3888338 L3.58521411,12.944161 L4.5761437,15.1323149 Z" id="🎨-Icon-color"></path>
                    </g>
                </g>
            </g>
        </g>
    </g>
</svg>