<?xml version="1.0" encoding="UTF-8"?>
<svg width="16px" height="4px" viewBox="0 0 16 4" version="1.1" xmlns="http://www.w3.org/2000/svg" xmlns:xlink="http://www.w3.org/1999/xlink">
    <title>Element/Icon/Options</title>
    <g id="Desktop" stroke="none" stroke-width="1" fill="none" fill-rule="evenodd">
        <g id="1-–-Home" transform="translate(-514.000000, -1174.000000)" fill="#BFC5D2">
            <g id="Module/Driver-List-Small" transform="translate(190.000000, 1136.000000)">
                <g id="Element/Icon/Options" transform="translate(324.000000, 32.000000)">
                    <path d="M2,9.5 C2.82842712,9.5 3.5,8.82842712 3.5,8 C3.5,7.17157288 2.82842712,6.5 2,6.5 C1.17157288,6.5 0.5,7.17157288 0.5,8 C0.5,8.82842712 1.17157288,9.5 2,9.5 Z M8,9.5 C8.82842712,9.5 9.5,8.82842712 9.5,8 C9.5,7.17157288 8.82842712,6.5 8,6.5 C7.17157288,6.5 6.5,7.17157288 6.5,8 C6.5,8.82842712 7.17157288,9.5 8,9.5 Z M14,9.5 C14.8284271,9.5 15.5,8.82842712 15.5,8 C15.5,7.17157288 14.8284271,6.5 14,6.5 C13.1715729,6.5 12.5,7.17157288 12.5,8 C12.5,8.82842712 13.1715729,9.5 14,9.5 Z" id="🎨-Icon-color"></path>
                </g>
            </g>
        </g>
    </g>
</svg>