<?xml version="1.0" encoding="UTF-8"?>
<svg width="30px" height="32px" viewBox="0 0 30 32" version="1.1" xmlns="http://www.w3.org/2000/svg" xmlns:xlink="http://www.w3.org/1999/xlink">
    <title>Shape</title>
    <g id="Desktop" stroke="none" stroke-width="1" fill="none" fill-rule="evenodd">
        <g id="1-–-Home" transform="translate(-1190.000000, -26.000000)" fill="#BFC5D2" fill-rule="nonzero">
            <g id="Component/Navigation/Top-Bar" transform="translate(80.000000, 0.000000)">
                <g id="Group" transform="translate(1110.000000, 20.000000)">
                    <g id="icon-notifications" transform="translate(0.000000, 3.000000)">
                        <path d="M29.4446719,29.1572001 C25.8876499,27.621454 25.7523412,21.0295263 25.749716,20.8631987 L25.749716,16.4407979 C25.749716,12.1844633 23.0292124,8.52447153 19.1632884,6.9660848 C19.1549752,4.77778649 17.290734,3 15.0001118,3 C12.7094349,3 10.8452485,4.77789107 10.8368805,6.96598023 C6.97112059,8.52436695 4.25056235,12.1843587 4.25056235,16.4406933 L4.25056235,20.8630941 C4.24804651,21.0294217 4.11262842,27.6213495 0.555497022,29.1570955 C0.150281897,29.3321029 -0.0724250795,29.7538043 0.0212628013,30.1693881 C0.114841297,30.5850241 0.499273355,30.8818622 0.943976308,30.8818622 L9.96163993,30.8818622 C10.1464998,31.8541022 10.6273544,32.7585772 11.3628015,33.4911821 C12.3396057,34.4641542 13.6313827,35 14.9999477,35 C16.3686221,35 17.6603991,34.4641542 18.6370939,33.4911821 C19.3726504,32.758525 19.853505,31.8539977 20.0382555,30.8818622 L29.0559192,30.8818622 C29.5006221,30.8818622 29.8849995,30.5850764 29.9786874,30.1693881 C30.0724846,29.7538043 29.849887,29.3321552 29.4446719,29.1572001 Z M24.7590199,25.9992761 C25.1329511,27.0830984 25.6624271,28.1715221 26.4132427,29.077252 L3.5868715,29.077252 C4.33757778,28.1716267 4.86705377,27.0832553 5.24098491,25.9992761 L24.7590199,25.9992761 Z M15.0001118,4.80471473 C16.0362571,4.80471473 16.9123181,5.47033891 17.1864358,6.37763747 C16.4802491,6.23761064 15.7490132,6.16378021 15.0001118,6.16378021 C14.2512104,6.16378021 13.5199746,6.23755835 12.8137878,6.37763747 C13.0879602,5.47039119 13.9640212,4.80471473 15.0001118,4.80471473 Z M6.1382665,20.8686366 L6.1382665,16.440641 C6.1382665,11.7690887 10.1136298,7.96849494 15.0001118,7.96849494 C19.8865938,7.96849494 23.8619571,11.7690887 23.8619571,16.440641 L23.8619571,20.8760092 C23.863215,21.0117484 23.8853107,22.4383175 24.2613749,24.1944568 L5.73862999,24.1944568 C6.1149129,22.4366443 6.13711796,21.0075654 6.1382665,20.8686366 Z M15.0001118,33.1954421 C13.5594624,33.1954421 12.3021415,32.2023915 11.8985671,30.8819145 L18.1015471,30.8819145 C17.6979727,32.2023915 16.4408706,33.1954421 15.0001118,33.1954421 Z" id="Shape"></path>
                    </g>
                </g>
            </g>
        </g>
    </g>
</svg>