<?xml version="1.0" encoding="UTF-8"?>
<svg width="17px" height="15px" viewBox="0 0 17 15" version="1.1" xmlns="http://www.w3.org/2000/svg" xmlns:xlink="http://www.w3.org/1999/xlink">
    <title>🎨 Icon color</title>
    <g id="Desktop" stroke="none" stroke-width="1" fill="none" fill-rule="evenodd">
        <g id="2-–-Analytics" transform="translate(-1103.000000, -709.000000)" fill="#2E5BFF">
            <g id="Component/Card-Metric" transform="translate(1063.000000, 676.000000)">
                <g id="Icon-Circle" transform="translate(24.000000, 16.000000)">
                    <g id="Element/Icon/Check" transform="translate(16.187500, 17.375000)">
                        <path d="M3.3886437,12.7573149 C3.8886982,13.8615268 5.1479171,13.8051996 5.54963873,12.6558696 L7.46259842,7.18287104 L9.5060111,13.3129099 C9.92518439,14.5703889 11.2944149,14.4672384 11.5137467,13.1512471 L13.2008283,3.02875753 L15.0501051,6.72731105 C15.255411,7.13792291 15.7547111,7.30435624 16.1653229,7.09905031 C16.5759348,6.89374438 16.7423681,6.39444436 16.5370622,5.9838325 L13.9175633,0.744834899 C13.3552227,-0.379846314 12.0526574,-0.194618482 11.8442012,1.05611861 L10.2870621,10.3989534 L8.5320375,5.13405063 C8.13328185,3.93782254 6.83178132,3.94913611 6.42039966,5.12610352 L4.3893158,10.9370567 L3.59398905,9.18082961 C3.13070326,8.15780978 1.93245625,8.08137333 1.35787451,9.05805866 L0.114916974,11.1708623 C-0.117863163,11.5665466 0.0141967179,12.0760176 0.409880974,12.3087978 C0.80556523,12.5415779 1.31503628,12.409518 1.54781642,12.0138338 L2.39771411,10.569161 L3.3886437,12.7573149 Z" id="🎨-Icon-color"></path>
                    </g>
                </g>
            </g>
        </g>
    </g>
</svg>