<?xml version="1.0" encoding="UTF-8"?>
<svg width="14px" height="17px" viewBox="0 0 14 17" version="1.1" xmlns="http://www.w3.org/2000/svg" xmlns:xlink="http://www.w3.org/1999/xlink">
    <title>🎨 Icon color</title>
    <g id="Desktop" stroke="none" stroke-width="1" fill="none" fill-rule="evenodd">
        <g id="2-–-Analytics" transform="translate(-813.000000, -708.000000)" fill="#2E5BFF">
            <g id="Component/Card-Metric" transform="translate(772.000000, 676.000000)">
                <g id="Icon-Circle" transform="translate(24.000000, 16.000000)">
                    <g id="Element/Icon/Check" transform="translate(17.375000, 16.187500)">
                        <path d="M13.5317868,5.97860189 C13.4077542,5.71209811 13.1404948,5.54166667 12.8465849,5.54166667 L8.68151864,5.54166667 L11.468977,1.1613822 C11.6170402,0.928682576 11.6265618,0.63381553 11.4938641,0.392047727 C11.3611664,0.150279924 11.1072573,0 10.8314334,0 L6.29734251,0 C6.02766485,0 5.77844099,0.143680303 5.64337546,0.377034848 L0.101708793,9.94900455 C-0.0336590098,10.1828125 -0.0339109038,10.4710295 0.10100349,10.7050894 C0.235968263,10.9391492 0.485544778,11.0833333 0.755675839,11.0833333 L5.30795349,11.0833333 L4.05689705,15.6704731 C3.96354516,16.0126962 4.12082773,16.373761 4.43493947,16.5384996 C4.54617584,16.5968383 4.66648038,16.625 4.78562622,16.625 C5.00290993,16.625 5.21646561,16.5312955 5.3639747,16.3560277 L13.4245808,6.78405795 C13.6139546,6.5592678 13.655769,6.2450553 13.5317868,5.97860189 Z M6.41769743,12.7585288 L7.02642432,10.5264966 C7.08839023,10.2992883 7.04088304,10.0561602 6.89790804,9.86895265 C6.75493304,9.68179545 6.53286334,9.5719697 6.29734251,9.5719697 L2.06638076,9.5719697 L6.73306864,1.51136364 L9.45483304,1.51136364 L6.6673747,5.89164811 C6.51936182,6.12434773 6.50978985,6.41921477 6.64248758,6.66103295 C6.77523569,6.90275038 7.02914478,7.0530303 7.30491826,7.0530303 L11.2223224,7.0530303 L6.41769743,12.7585288 Z" id="🎨-Icon-color"></path>
                    </g>
                </g>
            </g>
        </g>
    </g>
</svg>