<?xml version="1.0" encoding="UTF-8"?>
<svg width="14px" height="18px" viewBox="0 0 14 18" version="1.1" xmlns="http://www.w3.org/2000/svg" xmlns:xlink="http://www.w3.org/1999/xlink">
    <title>🎨 Icon color</title>
    <g id="Desktop" stroke="none" stroke-width="1" fill="none" fill-rule="evenodd">
        <g id="2-–-Analytics" transform="translate(-522.000000, -707.000000)" fill="#2E5BFF">
            <g id="Component/Card-Metric" transform="translate(481.000000, 676.000000)">
                <g id="Icon-Circle" transform="translate(24.000000, 16.000000)">
                    <g id="Element/Icon/Check" transform="translate(17.375000, 15.000000)">
                        <path d="M6.5625,2.97675763 C6.5625,2.97675763 1.875,8.675761 1.875,11.2454241 C1.875,13.8150872 3.97366524,15.8982107 6.5625,15.8982107 C9.15133476,15.8982107 11.25,13.8150872 11.25,11.2454241 C11.25,8.675761 6.5625,2.97675763 6.5625,2.97675763 Z M5.12662478,1.74571899 L6.5625,0 L7.99837522,1.74571899 C8.04108424,1.79764407 8.11592989,1.89000813 8.21838517,2.01858379 C8.38620287,2.22918563 8.57244447,2.4673962 8.77260967,2.72904278 C9.34435715,3.47640432 9.91624392,4.26574865 10.4529462,5.06537326 C10.8402224,5.64237016 11.1953854,6.20468363 11.511758,6.74725005 C12.540626,8.51171788 13.125,9.9657752 13.125,11.2454241 C13.125,14.8845766 10.175232,17.8125 6.5625,17.8125 C2.94976803,17.8125 0,14.8845766 0,11.2454241 C0,9.9657752 0.584374007,8.51171788 1.61324203,6.74725005 C1.92961461,6.20468363 2.28477758,5.64237016 2.67205376,5.06537326 C3.20875608,4.26574865 3.78064285,3.47640432 4.35239033,2.72904278 C4.55255553,2.4673962 4.73879713,2.22918563 4.90661483,2.01858379 C5.00907011,1.89000813 5.08391576,1.79764407 5.12662478,1.74571899 Z M6.5625,14.0625 C5.00919914,14.0625 3.75,12.8033009 3.75,11.25 C3.75,9.69669914 5.00919914,8.4375 6.5625,8.4375 C8.11580086,8.4375 9.375,9.69669914 9.375,11.25 C9.375,12.8033009 8.11580086,14.0625 6.5625,14.0625 Z M6.5625,12.1875 C7.08026695,12.1875 7.5,11.767767 7.5,11.25 C7.5,10.732233 7.08026695,10.3125 6.5625,10.3125 C6.04473305,10.3125 5.625,10.732233 5.625,11.25 C5.625,11.767767 6.04473305,12.1875 6.5625,12.1875 Z" id="🎨-Icon-color" transform="translate(6.562500, 8.906250) scale(1, -1) translate(-6.562500, -8.906250) "></path>
                    </g>
                </g>
            </g>
        </g>
    </g>
</svg>