<?xml version="1.0" encoding="UTF-8"?>
<svg width="12px" height="14px" viewBox="0 0 12 14" version="1.1" xmlns="http://www.w3.org/2000/svg" xmlns:xlink="http://www.w3.org/1999/xlink">
    <title>🎨 Icon color</title>
    <g id="Desktop" stroke="none" stroke-width="1" fill="none" fill-rule="evenodd">
        <g id="1-–-Home" transform="translate(-1185.000000, -685.000000)" fill="#2E5BFF">
            <g id="Module/Notification-Panel" transform="translate(1159.000000, 76.000000)">
                <g id="Messages" transform="translate(0.000000, 116.000000)">
                    <g id="Component/Content/Notification" transform="translate(0.000000, 432.000000)">
                        <g id="Icon" transform="translate(16.000000, 50.000000)">
                            <g id="Element/Circle-Icon" transform="translate(0.000000, 2.000000)">
                                <g id="Element/Icon/Message" transform="translate(10.000000, 9.000000)">
                                    <path d="M11.3951889,5.03461212 C11.2907404,4.81018788 11.0656798,4.66666667 10.8181768,4.66666667 L7.31075254,4.66666667 L9.65808587,0.978006061 C9.78277072,0.782048485 9.7907889,0.533739394 9.67904345,0.330145455 C9.56729799,0.126551515 9.35347981,0 9.12120709,0 L5.30302527,0 C5.0759283,0 4.86605557,0.120993939 4.75231618,0.31750303 L0.08564951,8.37810909 C-0.0283444293,8.575 -0.0285565506,8.81770909 0.0850555707,9.01481212 C0.198710116,9.21191515 0.408879813,9.33333333 0.636358601,9.33333333 L4.46985557,9.33333333 L3.41633436,13.1961879 C3.33772224,13.4843758 3.47017072,13.7884303 3.73468587,13.9271576 C3.8283586,13.9762848 3.92966769,14 4.03000103,14 C4.21297678,14 4.39281315,13.9210909 4.51703133,13.773497 L11.3049101,5.71289091 C11.4643828,5.52359394 11.499595,5.25899394 11.3951889,5.03461212 Z M5.40437678,10.7440242 L5.9169889,8.86441818 C5.96917072,8.67308485 5.92916466,8.46834545 5.80876466,8.31069697 C5.68836466,8.15309091 5.5013586,8.06060606 5.30302527,8.06060606 L1.74011012,8.06060606 L5.66995254,1.27272727 L7.96196466,1.27272727 L5.61463133,4.96138788 C5.4899889,5.15734545 5.4819283,5.40565455 5.59367375,5.60929091 C5.70546163,5.81284242 5.91927981,5.93939394 6.15151012,5.93939394 L9.45037678,5.93939394 L5.40437678,10.7440242 Z" id="🎨-Icon-color"></path>
                                </g>
                            </g>
                        </g>
                    </g>
                </g>
            </g>
        </g>
    </g>
</svg>