<?xml version="1.0" encoding="UTF-8"?>
<svg width="14px" height="12px" viewBox="0 0 14 12" version="1.1" xmlns="http://www.w3.org/2000/svg" xmlns:xlink="http://www.w3.org/1999/xlink">
    <title>🎨 Icon color</title>
    <g id="Desktop" stroke="none" stroke-width="1" fill="none" fill-rule="evenodd">
        <g id="1-–-Home" transform="translate(-1184.000000, -398.000000)" fill="#2E5BFF">
            <g id="Module/Notification-Panel" transform="translate(1159.000000, 76.000000)">
                <g id="Messages" transform="translate(0.000000, 116.000000)">
                    <g id="Component/Content/Notification" transform="translate(0.000000, 144.000000)">
                        <g id="Icon" transform="translate(16.000000, 50.000000)">
                            <g id="Element/Circle-Icon" transform="translate(0.000000, 2.000000)">
                                <g id="Element/Icon/Message" transform="translate(9.000000, 10.000000)">
                                    <path d="M1.27272727,10.1818182 L1.27272727,2.016 L7.00254545,6.53990909 L12.7272727,1.96 L12.7279091,10.1818182 L1.27272727,10.1818182 Z M11.5493636,1.27272727 L6.99745455,4.91463636 L2.38445455,1.27272727 L11.5493636,1.27272727 Z M12.7272727,0 L1.27272727,0 C0.570818182,0 0,0.570818182 0,1.27272727 L0,10.1818182 C0,10.8837273 0.570818182,11.4545455 1.27272727,11.4545455 L12.7272727,11.4545455 C13.4291818,11.4545455 14,10.8837273 14,10.1818182 L14,1.27272727 C14,0.570818182 13.4291818,0 12.7272727,0 L12.7272727,0 Z" id="🎨-Icon-color"></path>
                                </g>
                            </g>
                        </g>
                    </g>
                </g>
            </g>
        </g>
    </g>
</svg>