<?xml version="1.0" encoding="UTF-8"?>
<svg width="14px" height="14px" viewBox="0 0 14 14" version="1.1" xmlns="http://www.w3.org/2000/svg" xmlns:xlink="http://www.w3.org/1999/xlink">
    <title>🎨 Icon color</title>
    <g id="Desktop" stroke="none" stroke-width="1" fill="none" fill-rule="evenodd">
        <g id="1-–-Home" transform="translate(-1184.000000, -253.000000)" fill="#2E5BFF">
            <g id="Module/Notification-Panel" transform="translate(1159.000000, 76.000000)">
                <g id="Messages" transform="translate(0.000000, 116.000000)">
                    <g id="Icon" transform="translate(16.000000, 50.000000)">
                        <g id="Element/Circle-Icon" transform="translate(0.000000, 2.000000)">
                            <g id="Element/Icon/Message" transform="translate(9.000000, 9.000000)">
                                <path d="M2.43478261,7.30434783 L8.52173913,7.30434783 L8.52173913,6.08695652 L2.43478261,6.08695652 L2.43478261,7.30434783 Z M2.43478261,4.86956522 L10.9565217,4.86956522 L10.9565217,3.65217391 L2.43478261,3.65217391 L2.43478261,4.86956522 Z M12.173913,9.73913043 L9.13043478,9.73913043 L9.13043478,12.7211304 C7.74321739,12.4386957 6.69565217,11.2091304 6.69565217,9.73913043 L1.2173913,9.73913043 L1.2173913,1.2173913 L12.173913,1.2173913 L12.173913,9.73913043 Z M12.173913,0 L1.2173913,0 C0.546,0 0,0.546 0,1.2173913 L0,9.73913043 C0,10.4105217 0.546,10.9565217 1.2173913,10.9565217 L5.6553913,10.9565217 C6.18069565,12.7144348 7.8126087,14 9.73913043,14 L10.3478261,14 L10.3478261,10.9565217 L12.173913,10.9565217 C12.8453043,10.9565217 13.3913043,10.4105217 13.3913043,9.73913043 L13.3913043,1.2173913 C13.3913043,0.546 12.8453043,0 12.173913,0 L12.173913,0 Z" id="🎨-Icon-color"></path>
                            </g>
                        </g>
                    </g>
                </g>
            </g>
        </g>
    </g>
</svg>