<?xml version="1.0" encoding="UTF-8"?>
<svg width="22px" height="22px" viewBox="0 0 22 22" version="1.1" xmlns="http://www.w3.org/2000/svg" xmlns:xlink="http://www.w3.org/1999/xlink">
    <title>Combined Shape</title>
    <defs>
        <path d="M80,24 C80.5522847,24 81,24.4426603 81,24.9989566 L81,26.0010434 C81,26.5133442 80.6172798,26.9355745 80.1173326,26.9932793 L80,27 C79.4477153,27 79,26.5573397 79,26.0010434 L79,24.9989566 C79,24.4866558 79.3827202,24.0644255 79.8826674,24.0067207 L80,24 Z M87.07033,21.6561164 L87.7789124,22.3646989 C88.1390202,22.7248067 88.1687593,23.2894074 87.8619043,23.6834376 L87.7781746,23.7781746 C87.3876503,24.1686989 86.7580597,24.1722733 86.3646989,23.7789124 L85.6561164,23.07033 C85.2960086,22.7102222 85.2662696,22.1456214 85.5731245,21.7515912 L85.6568542,21.6568542 C86.0473785,21.26633 86.6769692,21.2627556 87.07033,21.6561164 Z M74.2484088,21.5731245 L74.3431458,21.6568542 C74.73367,22.0473785 74.7372444,22.6769692 74.3438836,23.07033 L73.6353011,23.7789124 C73.2751933,24.1390202 72.7105926,24.1687593 72.3165624,23.8619043 L72.2218254,23.7781746 C71.8313011,23.3876503 71.8277267,22.7580597 72.2210876,22.3646989 L72.92967,21.6561164 C73.2897778,21.2960086 73.8543786,21.2662696 74.2484088,21.5731245 Z M80,9 C83.8659932,9 87,12.1340068 87,16 C87,19.8659932 83.8659932,23 80,23 C76.1340068,23 73,19.8659932 73,16 C73,12.1340068 76.1340068,9 80,9 Z M80,11 C77.2385763,11 75,13.2385763 75,16 C75,18.7614237 77.2385763,21 80,21 C82.7614237,21 85,18.7614237 85,16 C85,13.2385763 82.7614237,11 80,11 Z M90.0010434,15 C90.5133442,15 90.9355745,15.3827202 90.9932793,15.8826674 L91,16 C91,16.5522847 90.5573397,17 90.0010434,17 L88.9989566,17 C88.4866558,17 88.0644255,16.6172798 88.0067207,16.1173326 L88,16 C88,15.4477153 88.4426603,15 88.9989566,15 L90.0010434,15 Z M71.0010434,15 C71.5133442,15 71.9355745,15.3827202 71.9932793,15.8826674 L72,16 C72,16.5522847 71.5573397,17 71.0010434,17 L69.9989566,17 C69.4866558,17 69.0644255,16.6172798 69.0067207,16.1173326 L69,16 C69,15.4477153 69.4426603,15 69.9989566,15 L71.0010434,15 Z M87.6834376,8.13809569 L87.7781746,8.22182541 C88.1686989,8.6123497 88.1722733,9.24194031 87.7789124,9.63530115 L87.07033,10.3438836 C86.7102222,10.7039914 86.1456214,10.7337304 85.7515912,10.4268755 L85.6568542,10.3431458 C85.26633,9.95262146 85.2627556,9.32303085 85.6561164,8.92967001 L86.3646989,8.22108758 C86.7248067,7.86097977 87.2894074,7.83124073 87.6834376,8.13809569 Z M73.6353011,8.22108758 L74.3438836,8.92967001 C74.7039914,9.28977783 74.7337304,9.85437858 74.4268755,10.2484088 L74.3431458,10.3431458 C73.9526215,10.73367 73.3230308,10.7372444 72.92967,10.3438836 L72.2210876,9.63530115 C71.8609798,9.27519333 71.8312407,8.71059258 72.1380957,8.31656236 L72.2218254,8.22182541 C72.6123497,7.83130112 73.2419403,7.82772675 73.6353011,8.22108758 Z M80,5 C80.5522847,5 81,5.44266033 81,5.99895656 L81,7.00104344 C81,7.51334417 80.6172798,7.93557446 80.1173326,7.99327929 L80,8 C79.4477153,8 79,7.55733967 79,7.00104344 L79,5.99895656 C79,5.48665583 79.3827202,5.06442554 79.8826674,5.00672071 L80,5 Z" id="path-1"></path>
    </defs>
    <g id="Desktop" stroke="none" stroke-width="1" fill="none" fill-rule="evenodd">
        <g id="1-–-Home" transform="translate(-1253.000000, -115.000000)">
            <g id="Module/Notification-Panel" transform="translate(1159.000000, 76.000000)">
                <g id="Weather-Widget" transform="translate(25.000000, 34.000000)">
                    <mask id="mask-2" fill="white">
                        <use xlink:href="#path-1"></use>
                    </mask>
                    <use id="Combined-Shape" fill="#4A4A4A" fill-rule="nonzero" xlink:href="#path-1"></use>
                </g>
            </g>
        </g>
    </g>
</svg>